<svg id="Layer_5" enable-background="new 0 0 64 64" height="512" viewBox="0 0 64 64" width="512" xmlns="http://www.w3.org/2000/svg"><g><path d="m63 30.689c0-3.221-2.183-6.015-5.309-6.792l-2.956-.736-.537-1.573c.899-.677 1.628-1.563 2.117-2.589h.685c2.206 0 4-1.794 4-4 0-.913-.319-1.745-.836-2.419.546-1.866.836-3.794.836-5.742v-1.838-1c0-1.654-1.346-3-3-3h-11.117c-3.223 0-5.997 1.947-7.218 4.724l-.324-.324-2.349 1.164c-2.271-1.481-4.767-2.513-7.435-3.074l-.839-2.49h-7.437l-.84 2.491c-2.667.561-5.163 1.593-7.435 3.074l-2.347-1.165-5.259 5.259 1.164 2.349c-1.481 2.271-2.513 4.767-3.074 7.435l-2.49.839v7.437l2.491.84c.561 2.667 1.593 5.163 3.074 7.435l-1.165 2.347 5.258 5.258 2.349-1.164c.782.509 1.604.96 2.443 1.365.662 1.296 1.997 2.195 3.549 2.195h.295c.43 1.439 1.312 2.68 2.48 3.568l-.545 1.594-2.927.732c-3.122.78-5.302 3.573-5.302 6.791v3.315h24v.005h26v-3.311c0-3.221-2.183-6.015-5.309-6.792l-2.956-.736-.537-1.573c1.181-.889 2.074-2.139 2.508-3.589h.294c2.206 0 4-1.794 4-4 0-.783-.235-1.509-.625-2.126.402-1.016.625-2.107.625-3.197 0-.573-.059-1.133-.166-1.676h2.166zm-10.097-6.703c-.465 1.209-1.612 2.014-2.92 2.014-1.304 0-2.456-.806-2.922-2.014l.491-1.437c.764.287 1.586.451 2.448.451.85 0 1.662-.16 2.416-.439zm-13.737 12.014c-.107.543-.166 1.102-.166 1.676 0 1.091.223 2.182.625 3.198-.39.617-.625 1.343-.625 2.126 0 2.206 1.794 4 4 4h.295c.43 1.439 1.312 2.68 2.48 3.568l-.545 1.594-2.927.732c-1.86.465-3.372 1.654-4.302 3.212-.931-1.56-2.445-2.75-4.309-3.214l-2.956-.736-.537-1.573c1.181-.889 2.074-2.139 2.508-3.589h.293c2.206 0 4-1.794 4-4 0-.783-.235-1.509-.625-2.126.402-1.016.625-2.106.625-3.197 0-4.784-3.892-8.676-8.676-8.676h-4.648c-4.727 0-8.576 3.802-8.667 8.507-3.796-3.019-6.009-7.556-6.009-12.502 0-8.822 7.178-16 16-16 8.608 0 15.631 6.839 15.968 15.392-2.387 1.147-3.968 3.56-3.968 6.293v5.315zm1.834 1.676c0-3.681 2.995-6.676 6.676-6.676h4.648c3.681 0 6.676 2.995 6.676 6.676 0 .589-.089 1.178-.244 1.748-.532-.263-1.123-.424-1.756-.424v-1c0-2.206-1.794-4-4-4v2c1.103 0 2 .897 2 2s-.897 2-2 2-2-.897-2-2v-2h-2v1.85c-1.068-.299-1.974-1.033-2.487-2.061l-.618-1.236-1.789.895.618 1.235c.122.243.26.474.409.694-.616.429-1.112.987-1.474 1.623h-.659c-.633 0-1.224.161-1.756.424-.155-.571-.244-1.159-.244-1.748zm2 3.796v3.528c-1.103 0-2-.897-2-2s.897-2 2-2h.033c-.015.157-.033.313-.033.472zm7 16.195 2.5 3.333h-5zm3.27-2.87-.73 2.922-1.14-1.519zm-5.81 2.922-.73-2.922 1.87 1.403zm-28.318-18.724h-.142c-.633 0-1.224.161-1.756.424-.155-.57-.244-1.159-.244-1.748 0-3.681 2.995-6.676 6.676-6.676h4.648c3.681 0 6.676 2.995 6.676 6.676 0 .589-.089 1.178-.244 1.748-.532-.263-1.123-.424-1.756-.424h-1-3.395c-1.923 0-3.707-.955-4.773-2.555l-.297-.445h-.535c-1.858 0-3.411 1.28-3.858 3zm13.858 2c1.103 0 2 .897 2 2s-.897 2-2 2zm10.08-23.995h-.08c-1.103 0-2-.897-2-2s.897-2 2-2v3c0 .34.033.672.08 1zm-.144 6.735c-.12-1.716-.482-3.362-1.051-4.913.356.105.725.178 1.115.178h.685c.484 1.015 1.203 1.893 2.089 2.568l-.545 1.594zm12.064-7.735c0 2.757-2.243 5-5 5s-5-2.243-5-5v-3.877c0-1.376.93-2.57 2.263-2.907.468 1.049 1.516 1.784 2.737 1.784h5zm2-5v-.35c.653-.232 1.256-.569 1.783-.998-.084.548-.197 1.092-.331 1.631-.451-.177-.939-.283-1.452-.283zm0 6h-.08c.047-.328.08-.66.08-1v-3c1.103 0 2 .897 2 2s-.897 2-2 2zm-10.117-14h11.117c.551 0 1 .449 1 1v1c0 2.206-1.794 4-4 4h-5c-.551 0-1-.449-1-1s.449-1 1-1h1v-2h-1c-1.371 0-2.517.93-2.874 2.188l-.338.085c-1.855.463-3.23 1.927-3.645 3.728h-.143c-.535 0-1.045.11-1.512.301l-.186-.558c-.2-.601-.302-1.227-.302-1.861 0-3.244 2.639-5.883 5.883-5.883zm-33.716 38.125-2.109 1.045-3.228-3.227 1.045-2.11-.335-.484c-1.609-2.329-2.684-4.93-3.197-7.733l-.106-.579-2.237-.755v-4.563l2.237-.755.106-.579c.513-2.803 1.588-5.405 3.197-7.733l.335-.484-1.045-2.11 3.227-3.227 2.11 1.045.484-.335c2.329-1.609 4.93-2.684 7.733-3.197l.579-.106.755-2.238h4.563l.755 2.237.579.106c2.803.513 5.404 1.588 7.733 3.197l.484.335 2.11-1.045.118.118c-.036.307-.06.618-.06.935 0 .849.136 1.688.404 2.493l.411 1.231c-.296.392-.515.838-.651 1.323-3.298-4.21-8.414-6.93-14.164-6.93-9.925 0-18 8.075-18 18 0 6.239 3.133 11.893 8.394 15.214.068.222.146.439.231.654-.28.443-.471.943-.56 1.479-.483-.277-.956-.573-1.414-.889zm3.833 1.87c0-1.103.897-2 2-2v4c-1.103 0-2-.897-2-2zm4 2v-5c0-.941.654-1.733 1.531-1.944 1.461 1.854 3.689 2.944 6.074 2.944h2.395v4c0 2.757-2.243 5-5 5s-5-2.243-5-5zm5 7c.85 0 1.662-.16 2.416-.439l.444 1.3-.596.91c-.504.77-1.354 1.229-2.274 1.229-.911 0-1.757-.453-2.262-1.21l-.622-.933.446-1.307c.764.286 1.586.45 2.448.45zm-11 9v-1.315c0-2.298 1.558-4.293 3.788-4.851l2.771-.693.505.758c.877 1.315 2.345 2.101 3.926 2.101 1.597 0 3.072-.797 3.947-2.133l.475-.725 2.795.696c2.233.556 3.793 2.551 3.793 4.852v1.31zm24-1.31c0-2.299 1.558-4.293 3.788-4.851l1.779-.445 1.652 6.611h-7.219zm22 .004v1.311h-7.219l1.651-6.604 1.775.442c2.233.556 3.793 2.551 3.793 4.851zm-8.209-7.032-2.791 2.093-2.819-2.114.371-1.086c.764.286 1.586.45 2.448.45.85 0 1.662-.16 2.416-.439zm-2.791-2.657c-2.757 0-5-2.243-5-5v-3.528c0-1.107.599-2.101 1.564-2.628.86.627 1.878 1.017 2.971 1.117.689 1.211 1.976 2.039 3.465 2.039.732 0 1.409-.212 2-.556v3.556c0 2.757-2.243 5-5 5zm7-5v-4c1.103 0 2 .897 2 2s-.897 2-2 2zm4-11h-.829c-1.387-2.949-4.378-5-7.847-5h-4.648c-3.469 0-6.46 2.051-7.847 5h-.829v-3.315c0-2.298 1.558-4.293 3.788-4.851l2.615-.654c.865 1.711 2.621 2.82 4.581 2.82 1.968 0 3.722-1.107 4.585-2.819l2.639.657c2.232.556 3.792 2.551 3.792 4.851z"/><path d="m23.152 13.141c.607-.094 1.229-.141 1.848-.141v-2c-.721 0-1.445.055-2.152.165z"/><path d="m11 25h2c0-5.227 3.338-9.816 8.308-11.421l-.615-1.903c-5.798 1.872-9.693 7.227-9.693 13.324z"/></g></svg>